<svg width="16" height="16" viewBox="0 0 16 16" fill="none" xmlns="http://www.w3.org/2000/svg">
<path d="M8 8.69031C7.76184 8.69031 7.52369 8.64617 7.29238 8.55826L1.26149 6.26317C1.10267 6.20282 1 6.0387 1 5.84504C1 5.65138 1.10267 5.48727 1.26149 5.42692L7.29238 3.132C7.75531 2.956 8.24484 2.956 8.70778 3.132L14.7387 5.42692C14.8973 5.48727 15 5.65138 15 5.84504C15 6.0387 14.8973 6.20282 14.7384 6.26317L8.70778 8.55808C8.47631 8.64617 8.238 8.69031 8 8.69031ZM8 3.36043C7.79451 3.36043 7.58918 3.39844 7.38944 3.47447L1.35856 5.7692C1.31733 5.78487 1.31111 5.82342 1.31111 5.84504C1.31111 5.86666 1.31733 5.90521 1.35856 5.92088L7.38944 8.2158C7.78876 8.36784 8.21093 8.36784 8.61056 8.2158L14.6414 5.92088C14.6827 5.90521 14.6889 5.86666 14.6889 5.84504C14.6889 5.82342 14.6827 5.78487 14.6414 5.7692L8.61056 3.47429C8.41098 3.39844 8.20533 3.36043 8 3.36043Z" fill="#F5F5F5"/>
<path d="M8 13C6.84982 13 5.69965 12.8134 4.55756 12.4405C4.20522 12.3252 3.95913 11.9521 3.95913 11.5332V7.15922C3.95913 7.05978 4.02882 6.97908 4.11469 6.97908C4.20056 6.97908 4.27024 7.05978 4.27024 7.15922V11.5331C4.27024 11.7916 4.42316 12.022 4.64202 12.0935C6.8702 12.8213 9.12964 12.8211 11.358 12.0933C11.5768 12.022 11.7299 11.7914 11.7299 11.5331V7.15922C11.7299 7.05978 11.7994 6.97908 11.8855 6.97908C11.9715 6.97908 12.041 7.05978 12.041 7.15922V11.5331C12.041 11.9519 11.7949 12.325 11.4424 12.4403C10.3004 12.8134 9.15018 13 8 13Z" fill="#F5F5F5"/>
<path d="M13.6087 10.6612C13.5227 10.6612 13.4532 10.6716 13.4532 10.572V6.617C13.4532 6.51755 13.5227 6.43685 13.6087 6.43685C13.6947 6.43685 13.7643 6.51755 13.7643 6.617V10.572C13.7643 10.6714 13.6947 10.6612 13.6087 10.6612Z" fill="#F5F5F5"/>
<path d="M13.6087 11.7734C13.2374 11.7734 12.9355 11.5106 12.9355 11.0806C12.9355 10.6506 13.2374 10.3594 13.6087 10.3594C13.98 10.3594 14.282 10.6506 14.282 11.0806C14.282 11.5106 13.98 11.7734 13.6087 11.7734ZM13.6087 10.6612C13.409 10.6612 13.2466 10.8493 13.2466 11.0806C13.2466 11.3119 13.409 11.4727 13.6087 11.4727C13.8084 11.4727 13.9708 11.3119 13.9708 11.0806C13.9708 10.8493 13.8084 10.6612 13.6087 10.6612Z" fill="#F5F5F5"/>
<path d="M13.6087 10.6612C13.5227 10.6612 13.4532 10.6716 13.4532 10.572V6.617C13.4532 6.51755 13.5227 6.43685 13.6087 6.43685C13.6947 6.43685 13.7643 6.51755 13.7643 6.617V10.572C13.7643 10.6714 13.6947 10.6612 13.6087 10.6612ZM13.6087 10.6612C13.409 10.6612 13.2466 10.8493 13.2466 11.0806C13.2466 11.3119 13.409 11.4727 13.6087 11.4727C13.8084 11.4727 13.9708 11.3119 13.9708 11.0806C13.9708 10.8493 13.8084 10.6612 13.6087 10.6612ZM8 8.69031C7.76184 8.69031 7.52369 8.64617 7.29238 8.55826L1.26149 6.26317C1.10267 6.20282 1 6.0387 1 5.84504C1 5.65138 1.10267 5.48727 1.26149 5.42692L7.29238 3.132C7.75531 2.956 8.24484 2.956 8.70778 3.132L14.7387 5.42692C14.8973 5.48727 15 5.65138 15 5.84504C15 6.0387 14.8973 6.20282 14.7384 6.26317L8.70778 8.55808C8.47631 8.64617 8.238 8.69031 8 8.69031ZM8 3.36043C7.79451 3.36043 7.58918 3.39844 7.38944 3.47447L1.35856 5.7692C1.31733 5.78487 1.31111 5.82342 1.31111 5.84504C1.31111 5.86666 1.31733 5.90521 1.35856 5.92088L7.38944 8.2158C7.78876 8.36784 8.21093 8.36784 8.61056 8.2158L14.6414 5.92088C14.6827 5.90521 14.6889 5.86666 14.6889 5.84504C14.6889 5.82342 14.6827 5.78487 14.6414 5.7692L8.61056 3.47429C8.41098 3.39844 8.20533 3.36043 8 3.36043ZM8 13C6.84982 13 5.69965 12.8134 4.55756 12.4405C4.20522 12.3252 3.95913 11.9521 3.95913 11.5332V7.15922C3.95913 7.05978 4.02882 6.97908 4.11469 6.97908C4.20056 6.97908 4.27024 7.05978 4.27024 7.15922V11.5331C4.27024 11.7916 4.42316 12.022 4.64202 12.0935C6.8702 12.8213 9.12964 12.8211 11.358 12.0933C11.5768 12.022 11.7299 11.7914 11.7299 11.5331V7.15922C11.7299 7.05978 11.7994 6.97908 11.8855 6.97908C11.9715 6.97908 12.041 7.05978 12.041 7.15922V11.5331C12.041 11.9519 11.7949 12.325 11.4424 12.4403C10.3004 12.8134 9.15018 13 8 13ZM13.6087 11.7734C13.2374 11.7734 12.9355 11.5106 12.9355 11.0806C12.9355 10.6506 13.2374 10.3594 13.6087 10.3594C13.98 10.3594 14.282 10.6506 14.282 11.0806C14.282 11.5106 13.98 11.7734 13.6087 11.7734Z" stroke="#F5F5F5" stroke-width="0.75"/>
</svg>
