<svg width="0" height="0" class="hidden">
  <symbol fill="none" xmlns="http://www.w3.org/2000/svg" viewBox="0 0 16 16" id="icon-search">
    <path d="M14 14L11.1 11.1M12.6667 7.33333C12.6667 10.2789 10.2789 12.6667 7.33333 12.6667C4.38781 12.6667 2 10.2789 2 7.33333C2 4.38781 4.38781 2 7.33333 2C10.2789 2 12.6667 4.38781 12.6667 7.33333Z" stroke="#1E1E1E" stroke-width="1.6" stroke-linecap="round" stroke-linejoin="round"></path>
  </symbol>
  <symbol fill="none" xmlns="http://www.w3.org/2000/svg" viewBox="0 0 16 16" id="icon-status-checking">
    <path d="M10.6667 2.66668H12C12.3536 2.66668 12.6927 2.80715 12.9428 3.0572C13.1928 3.30725 13.3333 3.64639 13.3333 4.00001V13.3333C13.3333 13.687 13.1928 14.0261 12.9428 14.2762C12.6927 14.5262 12.3536 14.6667 12 14.6667H3.99999C3.64637 14.6667 3.30723 14.5262 3.05718 14.2762C2.80713 14.0261 2.66666 13.687 2.66666 13.3333V4.00001C2.66666 3.64639 2.80713 3.30725 3.05718 3.0572C3.30723 2.80715 3.64637 2.66668 3.99999 2.66668H5.33332M5.99999 1.33334H9.99999C10.3682 1.33334 10.6667 1.63182 10.6667 2.00001V3.33334C10.6667 3.70153 10.3682 4.00001 9.99999 4.00001H5.99999C5.6318 4.00001 5.33332 3.70153 5.33332 3.33334V2.00001C5.33332 1.63182 5.6318 1.33334 5.99999 1.33334Z" stroke="#F5F5F5" stroke-width="1.3" stroke-linecap="round" stroke-linejoin="round"></path>
  </symbol>
  <symbol fill="none" xmlns="http://www.w3.org/2000/svg" viewBox="0 0 16 16" id="icon-status-done">
    <path d="M13.3333 4L5.99999 11.3333L2.66666 8" stroke="#F5F5F5" stroke-width="1.6" stroke-linecap="round" stroke-linejoin="round"></path>
  </symbol>
  <symbol fill="none" xmlns="http://www.w3.org/2000/svg" viewBox="0 0 16 16" id="icon-status-fix">
    <g clip-path="url(#clip0_148_133)">
      <path d="M7.33334 2.66667H2.66668C2.31305 2.66667 1.97392 2.80715 1.72387 3.05719C1.47382 3.30724 1.33334 3.64638 1.33334 4V13.3333C1.33334 13.687 1.47382 14.0261 1.72387 14.2761C1.97392 14.5262 2.31305 14.6667 2.66668 14.6667H12C12.3536 14.6667 12.6928 14.5262 12.9428 14.2761C13.1929 14.0261 13.3333 13.687 13.3333 13.3333V8.66667M12.3333 1.66667C12.5986 1.40145 12.9583 1.25246 13.3333 1.25246C13.7084 1.25246 14.0681 1.40145 14.3333 1.66667C14.5986 1.93189 14.7476 2.2916 14.7476 2.66667C14.7476 3.04174 14.5986 3.40145 14.3333 3.66667L8.00001 10L5.33334 10.6667L6.00001 8L12.3333 1.66667Z" stroke="#F5F5F5" stroke-width="1.25" stroke-linecap="round" stroke-linejoin="round"></path>
    </g>
    <defs>
      <clipPath id="clip0_148_133">
        <rect width="16" height="16" fill="white"></rect>
      </clipPath>
    </defs>
  </symbol>
  <symbol fill="none" xmlns="http://www.w3.org/2000/svg" viewBox="0 0 16 16" id="icon-status-new">
    <g clip-path="url(#clip0_148_257)">
      <path d="M8 1.52965L9.8836 5.54224C9.97562 5.73827 10.1592 5.8756 10.3733 5.90849L14.6518 6.56608L11.5349 9.75831C11.3907 9.90598 11.3253 10.1134 11.3585 10.317L12.087 14.7833L8.31455 12.6972C8.11882 12.589 7.88118 12.589 7.68545 12.6972L3.91304 14.7833L4.64152 10.317C4.67475 10.1134 4.60926 9.90598 4.46508 9.75831L1.34823 6.56608L5.62674 5.90849C5.84078 5.8756 6.02438 5.73827 6.1164 5.54224L8 1.52965Z" stroke="#F5F5F5" stroke-width="1.3" stroke-linecap="round" stroke-linejoin="round"></path>
    </g>
    <defs>
      <clipPath id="clip0_148_257">
        <rect width="16" height="16" fill="white"></rect>
      </clipPath>
    </defs>
  </symbol>
  <symbol fill="none" xmlns="http://www.w3.org/2000/svg" viewBox="0 0 40 40" id="icon-avatar">
    <rect x="1" y="1" width="38" height="38" rx="19" fill="white"></rect>
    <rect x="1" y="1" width="38" height="38" rx="19" stroke="black" stroke-width="2"></rect>
    <path fill-rule="evenodd" clip-rule="evenodd" d="M26.0002 16C26.0002 19.3137 23.314 22 20.0002 22C16.6865 22 14.0002 19.3137 14.0002 16C14.0002 12.6863 16.6865 10 20.0002 10C23.314 10 26.0002 12.6863 26.0002 16ZM24.0002 16C24.0002 18.2091 22.2094 20 20.0002 20C17.7911 20 16.0002 18.2091 16.0002 16C16.0002 13.7909 17.7911 12 20.0002 12C22.2094 12 24.0002 13.7909 24.0002 16Z" fill="#4F378A"></path>
    <path d="M20.0002 25C13.5259 25 8.00952 28.8284 5.9082 34.192C6.4201 34.7004 6.95934 35.1812 7.52353 35.6321C9.08827 30.7077 13.997 27 20.0002 27C26.0035 27 30.9122 30.7077 32.477 35.6321C33.0412 35.1812 33.5804 34.7004 34.0923 34.1921C31.991 28.8284 26.4746 25 20.0002 25Z" fill="#4F378A"></path>
  </symbol>
</svg>